<svg xmlns="http://www.w3.org/2000/svg" width="1240" height="1240"><path d="M0 620.001v620.001l620.25-.251 620.25-.251.251-619.75.251-619.75H0v620.001m.497.499c0 341 .114 480.649.253 310.332s.139-449.317 0-620S.497 279.5.497 620.5m760.86-309.628c-8.879 16.295-88.642 162.07-177.25 323.944-88.609 161.874-161.096 294.849-161.083 295.5.013.651 7.095 5.009 15.737 9.684 8.642 4.675 20.003 10.834 25.248 13.687l9.536 5.187 9.119-16.687c5.016-9.178 15.402-28.162 23.08-42.187 7.677-14.025 21.959-40.125 31.736-58a73605.175 73605.175 0 0129.019-53c6.183-11.275 17.887-32.65 26.008-47.5 15.509-28.361 36.147-66.072 54.998-100.5 6.173-11.275 17.873-32.65 26-47.5 8.126-14.85 19.829-36.225 26.005-47.5 6.177-11.275 17.876-32.65 25.997-47.5 16.764-30.655 38.496-70.366 55-100.5 19.824-36.196 46.174-84.434 47.341-86.665 1.078-2.062.042-2.763-21.608-14.617-12.507-6.848-24.09-13.131-25.74-13.962l-3-1.512-16.143 29.628M292.499 508.001l-111.997 112L292.75 732.249l112.248 112.247 20.749-20.749 20.749-20.749-91.767-91.749-91.767-91.749 91.769-91.167 91.769-91.167-20.491-20.583C414.739 405.262 405.288 396 405.007 396c-.28 0-50.909 50.4-112.508 112.001m521.497-91.497l-20.485 20.503 91.493 91.497L976.496 620 885 711.5l-91.495 91.499 20.749 20.749 20.748 20.748L947.25 732.249l112.248-112.248-111.997-112C885.902 446.4 835.273 396 834.993 396c-.281 0-9.73 9.227-20.997 20.504" fill="undefined" fill-rule="evenodd"/></svg>